# xmcd
#
# Track frame offsets: 
#        183
#        11233
#        24520
#        41038
#        53110
#        67575
#        83593
#        100125
#        112498
#        128143
#
# Disc length: 1867 seconds
#
# Revision: 11
# Processed by: cddbd v1.5.2PL0 Copyright (c) Steve Scherf et al.
# Submitted via: ExactAudioCopy v1.3
#
DISCID=7e07490a
DTITLE=Randy Travis - Always and Forever
DYEAR=1987
DGENRE=Country
TTITLE0=Too Gone Too Long
TTITLE1=My House
TTITLE2=Good Intentions
TTITLE3=What'll You do about Me
TTITLE4=I Won't Need You Anymore
TTITLE5=Forever and Ever, Amen
TTITLE6=I Told You So
TTITLE7=Anything
TTITLE8=The Truth is Lyin' Next to You
TTITLE9=Tonight We're Gonna Tear Down the Walls
EXTD=
EXTT0=
EXTT1=
EXTT2=
EXTT3=
EXTT4=
EXTT5=
EXTT6=
EXTT7=
EXTT8=
EXTT9=
PLAYORDER=
